<svg xmlns="http://www.w3.org/2000/svg" viewBox="0 0 100 100" width="100" height="100">
  <circle cx="50" cy="50" r="45" fill="#4a90e2" stroke="#2c5aa0" stroke-width="2"/>
  
  <!-- Continent shapes -->
  <!-- North America -->
  <path d="M25 35 Q35 30 40 35 Q45 32 50 35 Q48 40 45 45 Q40 48 35 45 Q30 42 25 40 Z" fill="#2c5aa0"/>
  
  <!-- Europe/Africa -->
  <path d="M55 25 Q65 22 70 28 Q68 35 65 40 Q70 45 68 55 Q65 60 60 58 Q58 50 55 45 Q52 35 55 25 Z" fill="#2c5aa0"/>
  
  <!-- Asia -->
  <path d="M70 30 Q80 28 85 35 Q83 42 78 40 Q75 38 70 35 Z" fill="#2c5aa0"/>
  
  <!-- Grid lines -->
  <ellipse cx="50" cy="50" rx="45" ry="22" fill="none" stroke="#2c5aa0" stroke-width="1" opacity="0.5"/>
  <ellipse cx="50" cy="50" rx="45" ry="35" fill="none" stroke="#2c5aa0" stroke-width="1" opacity="0.5"/>
  <line x1="5" y1="50" x2="95" y2="50" stroke="#2c5aa0" stroke-width="1" opacity="0.5"/>
  <line x1="50" y1="5" x2="50" y2="95" stroke="#2c5aa0" stroke-width="1" opacity="0.5"/>
  
  <!-- Weather symbols -->
  <circle cx="30" cy="25" r="3" fill="#ffd700" opacity="0.8"/>
  <path d="M75 65 Q77 62 80 65 Q78 68 75 65" fill="#87ceeb" opacity="0.8"/>
</svg>